<svg class="animated" id="freepik_stories-processing-thoughts" xmlns="http://www.w3.org/2000/svg" viewBox="0 0 500 500" version="1.1" xmlns:xlink="http://www.w3.org/1999/xlink" xmlns:svgjs="http://svgjs.com/svgjs"><style>svg#freepik_stories-processing-thoughts:not(.animated) .animable {opacity: 0;}svg#freepik_stories-processing-thoughts.animated #freepik--background-complete--inject-223 {animation: 6s Infinite  linear wind;animation-delay: 0s;}svg#freepik_stories-processing-thoughts.animated #freepik--process-bar--inject-223 {animation: 6s Infinite  linear shake;animation-delay: 0s;}svg#freepik_stories-processing-thoughts.animated #freepik--Character--inject-223 {animation: 6s Infinite  linear floating;animation-delay: 0s;}svg#freepik_stories-processing-thoughts.animated #freepik--speech-bubble-3--inject-223 {animation: 3s Infinite  linear floating;animation-delay: 0s;}svg#freepik_stories-processing-thoughts.animated #freepik--speech-bubble-2--inject-223 {animation: 3s Infinite  linear floating;animation-delay: 0s;}svg#freepik_stories-processing-thoughts.animated #freepik--speech-bubble-1--inject-223 {animation: 3s Infinite  linear floating;animation-delay: 0s;}svg#freepik_stories-processing-thoughts.animated #freepik--Gears--inject-223 {animation: 6s Infinite  linear spin;animation-delay: 0s;}            @keyframes wind {                0% {                    transform: rotate( 0deg );                }                25% {                    transform: rotate( 1deg );                }                75% {                    transform: rotate( -1deg );                }            }                    @keyframes shake {                10%, 90% {                    transform: translate3d(-1px, 0, 0);                  }                  20%, 80% {                    transform: translate3d(2px, 0, 0);                  }                  30%, 50%, 70% {                    transform: translate3d(-4px, 0, 0);                  }                  40%, 60% {                    transform: translate3d(4px, 0, 0);                  }            }                    @keyframes floating {                0% {                    opacity: 1;                    transform: translateY(0px);                }                50% {                    transform: translateY(-10px);                }                100% {                    opacity: 1;                    transform: translateY(0px);                }            }                 @keyframes spin {             from {                 transform: rotate(0);               }               to {                 transform: rotate(360deg);               }         }     </style><g id="freepik--background-complete--inject-223" class="animable" style="transform-origin: 249.975px 265.285px;"><path d="M419.14,230.15l8-12.88-3.94-2.44a3.62,3.62,0,0,1-1.68-3.39,21.43,21.43,0,0,0,.08-2.27,3.59,3.59,0,0,1,1.88-3.27l4.09-2.19-7.17-13.37-4.09,2.2a3.61,3.61,0,0,1-3.77-.25,21.12,21.12,0,0,0-1.92-1.19,3.59,3.59,0,0,1-1.9-3.27l.15-4.64-15.16-.47-.14,4.66a3.59,3.59,0,0,1-2.11,3.13c-.34.16-.67.33-1,.51s-.65.36-1,.55a3.61,3.61,0,0,1-3.76,0l-4-2.47-8,12.89,3.95,2.45a3.59,3.59,0,0,1,1.67,3.39,21.34,21.34,0,0,0-.08,2.26,3.61,3.61,0,0,1-1.88,3.27l-4.09,2.19,7.17,13.36,4.09-2.19a3.62,3.62,0,0,1,3.76.24,21.12,21.12,0,0,0,1.92,1.19,3.6,3.6,0,0,1,1.91,3.27L392,236.1l15.15.47.15-4.65a3.59,3.59,0,0,1,2.11-3.13c.33-.16.67-.33,1-.51s.65-.36,1-.55a3.6,3.6,0,0,1,3.78,0Zm-12.83-9.56a12.42,12.42,0,1,1,5.09-16.81A12.41,12.41,0,0,1,406.31,220.59Z" style="fill: rgb(235, 235, 235); transform-origin: 400.42px 209.645px;" id="elqddg0j75aqb" class="animable"></path><path d="M159.39,416.67l10.71-17.54.05.2-5.65-3.46a5,5,0,0,1-1.93-2.76,12.49,12.49,0,0,1-.15-3.35l0-1.64a5.17,5.17,0,0,1,2.38-4.39l5.83-3.15-.11.37-9.76-18.09.44.13-5.84,3.14a5.27,5.27,0,0,1-5.07-.43l-1.39-.86-1.4-.86a5.25,5.25,0,0,1-2.66-4.35l.18-6.63.38.4-20.54-.59.45-.42-.2,6.63a5.35,5.35,0,0,1-3,4.26l-1.46.75-1.43.81a5.32,5.32,0,0,1-5.2.12l-5.66-3.47.69-.16L98.25,378.77l-.14-.63,5.62,3.53a5.32,5.32,0,0,1,2.19,4.67l-.06,1.64-.06,1.64a5.33,5.33,0,0,1-2.47,4.51l-5.85,3.13.16-.53,9.67,18.14-.46-.14,5.85-3.11a5.19,5.19,0,0,1,3.45-.27,12.55,12.55,0,0,1,3,1.58l1.4.87a5.19,5.19,0,0,1,2.6,4.31l-.21,6.62-.27-.28,20.54.73-.19.18.26-6.61c.16-2.42,2.27-3.87,4.29-4.7,1.81-1.19,4.19-2.1,6.25-.89l5.59,3.51Zm0,0-5.64-3.43c-2.07-1.17-4.3-.24-6.11,1-2,.86-4,2.22-4.1,4.56l-.17,6.59v.18h-.18L122.64,425h-.28v-.27l.18-6.59a4.65,4.65,0,0,0-2.32-3.81l-1.42-.86-1.42-.87a4.59,4.59,0,0,0-4.42-.38l-5.8,3.12-.3.16-.16-.3L97,397.1l-.18-.34.34-.19,5.79-3.13a4.49,4.49,0,0,0,2.07-3.82l0-1.67,0-1.66a4.44,4.44,0,0,0-1.84-3.91l-5.6-3.47-.38-.24.24-.38,10.79-17.49.26-.42.42.26,5.6,3.47a4.41,4.41,0,0,0,4.28-.09l1.45-.82,1.48-.74a4.45,4.45,0,0,0,2.48-3.52l.22-6.58,0-.44.43,0,20.54.68.39,0V353l-.22,6.58a4.56,4.56,0,0,0,2.28,3.76l1.41.87,1.41.89a4.59,4.59,0,0,0,4.39.39l5.82-3.09.29-.15.15.28L171,380.69l.13.24-.24.13-5.81,3.11a4.69,4.69,0,0,0-2.17,3.95c0,.82-.08,2.49-.13,3.31a4.73,4.73,0,0,0,1.9,4.14l5.58,3.52.12.07-.07.12-11,17.39Z" style="fill: rgb(235, 235, 235); transform-origin: 133.975px 388.745px;" id="elk35nsbhtgz" class="animable"></path><path d="M142,403.7c-13.26,7.14-28.65-5.33-24.47-19.83a17.2,17.2,0,0,1,21.52-11.52c14.4,4.54,16.23,24.26,2.95,31.35Zm0,0c13-7.11,11-26.35-3.2-30.53a16.63,16.63,0,0,0-20.45,10.95C114,398.26,128.87,410.63,142,403.7Z" style="fill: rgb(235, 235, 235); transform-origin: 133.907px 388.683px;" id="el51s4j68vo67" class="animable"></path><path d="M78.67,350.65l9.2-5.31-1.62-2.82a2.49,2.49,0,0,1,.09-2.64c.28-.45.55-.91.79-1.38a2.52,2.52,0,0,1,2.24-1.4h3.25V326.48H89.37a2.52,2.52,0,0,1-2.24-1.4c-.24-.47-.51-.93-.79-1.37a2.51,2.51,0,0,1-.09-2.65l1.62-2.81-9.2-5.31-1.62,2.83A2.53,2.53,0,0,1,74.7,317l-.78,0-.78,0a2.51,2.51,0,0,1-2.33-1.22l-1.64-2.84L60,318.25l1.63,2.82a2.51,2.51,0,0,1-.1,2.65c-.28.44-.55.9-.79,1.37a2.51,2.51,0,0,1-2.24,1.39H55.22V337.1h3.25a2.52,2.52,0,0,1,2.24,1.4c.24.47.51.93.79,1.37a2.51,2.51,0,0,1,.1,2.65L60,345.34l9.2,5.31,1.63-2.83a2.52,2.52,0,0,1,2.33-1.23l.79,0,.78,0a2.54,2.54,0,0,1,2.35,1.24Zm-4.75-10.16a8.7,8.7,0,1,1,8.7-8.69A8.69,8.69,0,0,1,73.92,340.49Z" style="fill: rgb(235, 235, 235); transform-origin: 73.92px 331.795px;" id="elax60vnmhifc" class="animable"></path><path d="M182.07,118.92l-5.31-9.2L174,111.35a2.55,2.55,0,0,1-2.65-.09,13.41,13.41,0,0,0-1.38-.8,2.51,2.51,0,0,1-1.39-2.24V105H157.9v3.25a2.51,2.51,0,0,1-1.39,2.24,14.56,14.56,0,0,0-1.38.8,2.53,2.53,0,0,1-2.64.09l-2.82-1.63-5.31,9.2,2.83,1.63a2.51,2.51,0,0,1,1.24,2.34c0,.26,0,.52,0,.78s0,.52,0,.78a2.54,2.54,0,0,1-1.23,2.34l-2.84,1.63,5.31,9.2,2.82-1.63a2.53,2.53,0,0,1,2.65.1,14.31,14.31,0,0,0,1.37.79,2.51,2.51,0,0,1,1.39,2.24v3.26h10.63v-3.26a2.51,2.51,0,0,1,1.39-2.24,14.31,14.31,0,0,0,1.37-.79,2.53,2.53,0,0,1,2.65-.1l2.82,1.63,5.31-9.2-2.82-1.63a2.52,2.52,0,0,1-1.24-2.33c0-.26,0-.52,0-.79s0-.52,0-.78a2.51,2.51,0,0,1,1.24-2.34Zm-10.15,4.75a8.7,8.7,0,1,1-8.7-8.7A8.7,8.7,0,0,1,171.92,123.67Z" style="fill: rgb(235, 235, 235); transform-origin: 163.215px 123.705px;" id="el817ht8gqmor" class="animable"></path><path d="M450.63,311.54l-5.44-9.12.21.05-2.95,1.75a2.75,2.75,0,0,1-2.65-.12l-1.48-.83a2.77,2.77,0,0,1-1.49-2.25l0-3.43.29.29-10.62.08.37-.37,0,3.44a5.06,5.06,0,0,1-5.86,3.4l-3-1.71.6-.16-5.28,9.21-.17-.63,3,1.71a5.2,5.2,0,0,1,0,6.89l-3,1.74.19-.69,5.28,9.22-.65-.18,3-1.71a3,3,0,0,1,2-.22,11.6,11.6,0,0,1,2.37,1.23,3,3,0,0,1,1.58,2.42V335l-.43-.44,10.62,0-.4.4,0-3.44a2.87,2.87,0,0,1,.78-1.76,12.23,12.23,0,0,1,2.23-1.42,2.85,2.85,0,0,1,2.77-.12l3,1.73-.4.11,5.4-9.15.07.26-2.94-1.75a3.14,3.14,0,0,1-1.11-3.17,3.09,3.09,0,0,1,1.16-3.09l3-1.66Zm0,0-2.92,1.76a2.94,2.94,0,0,0-1,3,2.9,2.9,0,0,0,1.06,2.92l3,1.67.17.09-.1.17-5.21,9.25-.15.25-.25-.14-3-1.67a2.21,2.21,0,0,0-2.13.13c-1.06.67-2.58,1.17-2.63,2.65l0,3.39v.39h-.4l-10.62.05H426c0-.2,0-3.53,0-3.83,0-1.1-1-1.67-1.86-2.11s-1.8-1.06-2.75-.54l-3.34,1.93-.24-.41-5.33-9.19-.25-.43,3.37-1.94c.91-.54.95-1.68.88-2.63l0-.86a2.06,2.06,0,0,0-.89-1.79l-2.93-1.7-.4-.23.23-.4,5.33-9.19.22-.38.38.22,2.93,1.7c1,.52,2,0,2.79-.54a6.51,6.51,0,0,0,1.32-.86,2.09,2.09,0,0,0,.57-1.28l0-3.39v-.38h.37l10.62.08h.29v.29l0,3.39a2.3,2.3,0,0,0,1.19,1.86c.37.22,1.12.65,1.48.88a2.32,2.32,0,0,0,2.25.15l3-1.66.13-.07.07.13,5.18,9.27Z" style="fill: rgb(235, 235, 235); transform-origin: 431.585px 316.335px;" id="el1qatk6x511k" class="animable"></path><path d="M440.48,316.29c.07,7.78-9.56,11.91-15.16,6.45a9,9,0,0,1,0-12.91c5.61-5.46,15.23-1.31,15.16,6.46Zm0,0c0-7.55-9.41-11.32-14.55-5.85a8.48,8.48,0,0,0,0,11.69c5.12,5.48,14.6,1.71,14.55-5.84Z" style="fill: rgb(235, 235, 235); transform-origin: 431.536px 316.287px;" id="elhdako5y892" class="animable"></path><path d="M96.38,252.11l-13.83,10.5-.22-.19a73.25,73.25,0,0,0-6.62-5.2c-1.13-.68-2.83-.81-5-1-4.92-.39-12.35-1-20.24-9.19-4.55-4.74-7.14-12.45-6.58-19.65a24.65,24.65,0,0,1,28.88-22c7.09,1.39,13.84,6,17.19,11.61h0c5.79,9.81,4.37,17.13,3.43,22-.41,2.12-.73,3.8-.38,5.07a74.63,74.63,0,0,0,3.23,7.77Zm-13.79,9.55,12.87-9.78a67.83,67.83,0,0,1-3.15-7.62c-.4-1.43-.06-3.18.37-5.4,1-5,2.3-11.89-3.34-21.45-3.25-5.5-9.81-9.92-16.7-11.27a23.93,23.93,0,0,0-28,21.3c-.54,7,2,14.5,6.38,19.09,7.7,8,14.67,8.56,19.77,9,2.25.18,4,.32,5.31,1.09A68.73,68.73,0,0,1,82.59,261.66Z" style="fill: rgb(235, 235, 235); transform-origin: 70.0972px 233.803px;" id="elaf51efrvdfj" class="animable"></path><g id="el9ql2cnm43j"><rect x="75.59" y="236.75" width="1.1" height="27.13" style="fill: rgb(235, 235, 235); transform-origin: 76.14px 250.315px; transform: rotate(-47.8deg);" class="animable"></rect></g><g id="ele8hg72rf5ic"><rect x="86.11" y="228.75" width="1.1" height="27.13" style="fill: rgb(235, 235, 235); transform-origin: 86.66px 242.315px; transform: rotate(-26.66deg);" class="animable"></rect></g><path d="M78.74,242.81h0c-1.26.95-3.19.66-5-.16A2,2,0,0,1,73,244.1h0c-2,1.55-6-2-6.18-2.15l.37-.41c1,.95,4.08,3.18,5.48,2.12h0a1.68,1.68,0,0,0,.48-1.28,11.86,11.86,0,0,1-3.84-3c-.9-1.19-1-2.21-.18-2.81h0a1.58,1.58,0,0,1,1.64-.22c1.46.61,2.64,3.12,2.89,5.1,0,.21,0,.41,0,.61,1.76.82,3.58,1.12,4.66.3h0c1-.75,1.17-2.29.88-4a7,7,0,0,1-3.94-2.66c-1.15-1.51-1.29-2.89-.36-3.59h0c.75-.58,1.75-.17,2.73,1.12a12.5,12.5,0,0,1,2,4.66,2.32,2.32,0,0,0,1.67-.47h0c1.2-.9.06-4.6-.47-6l.51-.2c.21.54,2,5.28.3,6.6h0a2.81,2.81,0,0,1-1.91.56C80.12,240.25,79.9,241.92,78.74,242.81ZM75.31,232.6c-.79.6-.24,1.9.47,2.83a6.89,6.89,0,0,0,3.39,2.42,11.42,11.42,0,0,0-1.9-4.22c-.36-.48-1.28-1.54-2-1ZM69.51,237c-.67.5-.22,1.38.28,2a10.92,10.92,0,0,0,3.39,2.74l0-.27c-.23-1.79-1.33-4.14-2.55-4.65a1,1,0,0,0-1.09.14Z" style="fill: rgb(235, 235, 235); transform-origin: 74.593px 237.855px;" id="elvyru9qnm078" class="animable"></path><path d="M100,253.52,83,266.48l-2.89-3.8,17.06-13ZM83.1,265.45,99,253.38l-2-2.63L81.09,262.82Z" style="fill: rgb(235, 235, 235); transform-origin: 90.055px 258.08px;" id="elgvofnrdyaz" class="animable"></path><path d="M102.85,257.26l-17,13-2.9-3.8,17.06-13ZM85.94,269.19l15.88-12.07-2-2.63L83.94,266.56Z" style="fill: rgb(235, 235, 235); transform-origin: 92.9px 261.86px;" id="elze3hgj5myda" class="animable"></path><path d="M105.69,261l-17,13-2.89-3.8,17-13ZM88.78,272.93l15.88-12.07-2-2.63L86.78,270.3Z" style="fill: rgb(235, 235, 235); transform-origin: 95.745px 265.6px;" id="elywm7bud0p3" class="animable"></path><path d="M450.66,249.5l-8.53-12.25.19-.17c.16-.14,3.76-3.27,7.62-2.81a6.78,6.78,0,0,1,4.77,3.13A7,7,0,0,1,456,243c-.86,3.84-5,6.24-5.13,6.34Zm-7.76-12.16,7.92,11.39c.87-.55,3.95-2.73,4.64-5.83a6.44,6.44,0,0,0-1.22-5.17,6.22,6.22,0,0,0-4.37-2.89C446.76,234.47,443.7,236.71,442.9,237.34Z" style="fill: rgb(235, 235, 235); transform-origin: 449.132px 241.862px;" id="elmkbr4mtv3eg" class="animable"></path><polygon points="395.86 288.91 395.52 288.44 450.66 248.83 442.76 237.47 387.63 277.08 387.29 276.61 442.89 236.66 451.45 248.97 451.22 249.13 395.86 288.91" style="fill: rgb(235, 235, 235); transform-origin: 419.37px 262.785px;" id="el95d4glsb6e7" class="animable"></polygon><path d="M449.77,251.66l-9.93-14.28,2.66-1.92,9.94,14.29Zm-9.14-14.15,9.28,13.35,1.73-1.25-9.28-13.34Z" style="fill: rgb(235, 235, 235); transform-origin: 446.14px 243.56px;" id="elvy8u5c6mnl" class="animable"></path><path d="M447.34,253.41l-9.94-14.29,2.67-1.91L450,251.49Zm-9.14-14.15,9.28,13.34,1.73-1.24L439.93,238Z" style="fill: rgb(235, 235, 235); transform-origin: 443.7px 245.31px;" id="elfrvcfq6kgw" class="animable"></path><path d="M382.22,289.46l5.08-12.68.23.07,2.1.19.34,0-.55,2.09,2.14.2-.54,2.09,2.13.2-.54,2.09,2.12.17L394.2,286l1.78.14.33,0-.65,2.64Zm5.44-12-4.57,11.4,2.73-.11,9.38-.43.39-1.58-1.78-.15-.34,0,.53-2.11-2.12-.17.55-2.1-2.14-.2.54-2.09-2.13-.2.54-2.08Z" style="fill: rgb(235, 235, 235); transform-origin: 389.265px 283.12px;" id="elb4ot2jmnezp" class="animable"></path><path d="M382.52,289.14l2.06-5.09,3.38,4.86Zm2.19-3.89-1.32,3.28,3.5-.15Z" style="fill: rgb(235, 235, 235); transform-origin: 385.24px 286.595px;" id="el6biulcy8vv" class="animable"></path><path d="M393.13,277.66c3.63-3,7.35-5.86,11.09-8.7s7.56-5.57,11.33-8.36,7.66-5.44,11.54-8.08,7.79-5.25,11.79-7.73c-3.63,3-7.35,5.86-11.09,8.7s-7.56,5.57-11.34,8.36-7.65,5.44-11.54,8.07S397.13,275.18,393.13,277.66Z" style="fill: rgb(235, 235, 235); transform-origin: 416.005px 261.225px;" id="elxnz4w0yzz8r" class="animable"></path><path d="M396.9,282.92c3.63-3,7.35-5.85,11.09-8.69s7.56-5.58,11.33-8.37,7.66-5.43,11.54-8.07,7.79-5.26,11.79-7.74c-3.63,3-7.35,5.87-11.09,8.71s-7.56,5.57-11.33,8.36-7.66,5.43-11.55,8.07S400.9,280.44,396.9,282.92Z" style="fill: rgb(235, 235, 235); transform-origin: 419.775px 266.485px;" id="elcf8n2ceat14" class="animable"></path></g><g id="freepik--process-bar--inject-223" class="animable animator-active" style="transform-origin: 250px 78.5699px;"><rect x="106.6" y="73.01" width="286.8" height="23.31" style="fill: rgb(235, 235, 235); transform-origin: 250px 84.665px;" id="elxhqujj1r4t" class="animable"></rect><rect x="113.35" y="78.41" width="166.87" height="12.52" style="fill: rgb(203, 173, 141); transform-origin: 196.785px 84.67px;" id="elgkqfm6ow76h" class="animable"></rect><g id="eld5ansa109"><polygon points="131.37 90.93 122.82 90.93 113.35 78.41 121.89 78.41 131.37 90.93" style="fill: rgb(255, 255, 255); opacity: 0.2; transform-origin: 122.36px 84.67px;" class="animable"></polygon></g><g id="eluqd4e63hese"><polygon points="149.38 90.93 140.84 90.93 131.37 78.41 139.91 78.41 149.38 90.93" style="fill: rgb(255, 255, 255); opacity: 0.2; transform-origin: 140.375px 84.67px;" class="animable"></polygon></g><g id="eluj3n27opl7"><polygon points="167.4 90.93 158.86 90.93 149.38 78.41 157.93 78.41 167.4 90.93" style="fill: rgb(255, 255, 255); opacity: 0.2; transform-origin: 158.39px 84.67px;" class="animable"></polygon></g><g id="el4p94124ii4j"><polygon points="185.42 90.93 176.88 90.93 167.4 78.41 175.95 78.41 185.42 90.93" style="fill: rgb(255, 255, 255); opacity: 0.2; transform-origin: 176.41px 84.67px;" class="animable"></polygon></g><g id="elbojqnt53kvk"><polygon points="203.44 90.93 194.9 90.93 185.42 78.41 193.97 78.41 203.44 90.93" style="fill: rgb(255, 255, 255); opacity: 0.2; transform-origin: 194.43px 84.67px;" class="animable"></polygon></g><g id="el34govb236tu"><polygon points="221.46 90.93 212.91 90.93 203.44 78.41 211.99 78.41 221.46 90.93" style="fill: rgb(255, 255, 255); opacity: 0.2; transform-origin: 212.45px 84.67px;" class="animable"></polygon></g><g id="elk9acdwynw9g"><polygon points="239.48 90.93 230.93 90.93 221.46 78.41 230 78.41 239.48 90.93" style="fill: rgb(255, 255, 255); opacity: 0.2; transform-origin: 230.47px 84.67px;" class="animable"></polygon></g><g id="elqhvxywt37m"><polygon points="257.5 90.93 248.95 90.93 239.48 78.41 248.02 78.41 257.5 90.93" style="fill: rgb(255, 255, 255); opacity: 0.2; transform-origin: 248.49px 84.67px;" class="animable"></polygon></g><g id="eluj15h7k09h"><polygon points="275.52 90.93 266.97 90.93 257.5 78.41 266.04 78.41 275.52 90.93" style="fill: rgb(255, 255, 255); opacity: 0.2; transform-origin: 266.51px 84.67px;" class="animable"></polygon></g><g id="eljgmsq06gvbg"><polygon points="280.22 78.41 280.22 84.62 275.51 78.41 280.22 78.41" style="fill: rgb(255, 255, 255); opacity: 0.2; transform-origin: 277.865px 81.515px;" class="animable"></polygon></g><path d="M218,65.19h-1.2v2.12a.55.55,0,0,1-1.09,0V61.55a.54.54,0,0,1,.54-.53H218a2.09,2.09,0,1,1,0,4.17Zm-1.2-1.08H218a1,1,0,1,0,0-2h-1.2Z" style="fill: rgb(199, 199, 199); transform-origin: 217.972px 64.4005px;" id="elr7x2hmhr0l" class="animable"></path><path d="M225.94,67a.54.54,0,0,1-.34.68.88.88,0,0,1-.22,0h0a.72.72,0,0,1-.38-.11,1,1,0,0,1-.31-.34,2.56,2.56,0,0,1-.2-1.17.8.8,0,0,0-.12-.42.86.86,0,0,0-.29-.28,1.87,1.87,0,0,0-.55-.24h-1.15v2.12a.55.55,0,0,1-.55.54.54.54,0,0,1-.53-.54V61.55a.52.52,0,0,1,.53-.53h1.75a2.08,2.08,0,0,1,1.33,3.69,1.74,1.74,0,0,1,.34.37,1.87,1.87,0,0,1,.32,1,2.32,2.32,0,0,0,0,.57A.55.55,0,0,1,225.94,67Zm-1.37-3.93a1,1,0,0,0-1-1h-1.2v2h1.2A1,1,0,0,0,224.57,63.11Z" style="fill: rgb(199, 199, 199); transform-origin: 223.633px 64.4px;" id="el20wxmwbkggx" class="animable"></path><path d="M232.74,61.87a3.56,3.56,0,0,1,0,4.93,3.16,3.16,0,0,1-2.33,1,3.28,3.28,0,0,1-2.39-1,3.62,3.62,0,0,1,0-4.93,3.24,3.24,0,0,1,2.39-1A3.13,3.13,0,0,1,232.74,61.87Zm-.13,2.46a2.51,2.51,0,0,0-.66-1.7,2.1,2.1,0,0,0-1.54-.7,2.13,2.13,0,0,0-1.58.7,2.47,2.47,0,0,0-.66,1.7,2.43,2.43,0,0,0,.66,1.7,2.13,2.13,0,0,0,1.58.7A2.1,2.1,0,0,0,232,66,2.48,2.48,0,0,0,232.61,64.33Z" style="fill: rgb(199, 199, 199); transform-origin: 230.391px 64.3349px;" id="elsc7hvelxzu" class="animable"></path><path d="M235.06,64.33a3.58,3.58,0,0,1,3.58-3.51,3.68,3.68,0,0,1,2.25.76.59.59,0,0,1,.1.78.56.56,0,0,1-.78.11,2.45,2.45,0,0,0-1.57-.54,2.59,2.59,0,0,0-1.76.71,2.39,2.39,0,0,0-.71,1.69,2.36,2.36,0,0,0,.71,1.7,2.58,2.58,0,0,0,1.76.7,2.46,2.46,0,0,0,1.57-.53.59.59,0,0,1,.78.1.58.58,0,0,1-.1.78,3.62,3.62,0,0,1-2.25.77A3.57,3.57,0,0,1,235.06,64.33Z" style="fill: rgb(199, 199, 199); transform-origin: 238.079px 64.335px;" id="elnuz5h5gtajr" class="animable"></path><path d="M242.88,67.31V61.55a.53.53,0,0,1,.54-.53h3.19a.54.54,0,0,1,.54.53.55.55,0,0,1-.54.55H244v1.79h2.27a.54.54,0,1,1,0,1.08H244v1.79h2.64a.55.55,0,0,1,0,1.09h-3.19A.54.54,0,0,1,242.88,67.31Z" style="fill: rgb(199, 199, 199); transform-origin: 245.015px 64.4354px;" id="el1qm37ilnipq" class="animable"></path><path d="M248.46,66.15a.5.5,0,0,1,.71-.07,3.19,3.19,0,0,0,1.86.75,2.13,2.13,0,0,0,1.22-.36.88.88,0,0,0,.42-.7.52.52,0,0,0-.09-.31.9.9,0,0,0-.29-.3A4,4,0,0,0,251,64.7h0a4.76,4.76,0,0,1-1.26-.38,2.05,2.05,0,0,1-.91-.76,1.44,1.44,0,0,1-.23-.8,1.81,1.81,0,0,1,.79-1.42,2.86,2.86,0,0,1,1.68-.52,3.84,3.84,0,0,1,2.13.78.52.52,0,0,1,.14.7.5.5,0,0,1-.7.14,2.8,2.8,0,0,0-1.57-.62,1.81,1.81,0,0,0-1.09.33.78.78,0,0,0-.37.61.49.49,0,0,0,.07.28,1,1,0,0,0,.26.25,3.35,3.35,0,0,0,1.22.43h0a5.63,5.63,0,0,1,1.35.41,2.21,2.21,0,0,1,1,.81,1.55,1.55,0,0,1,.24.83,1.91,1.91,0,0,1-.84,1.51,3.07,3.07,0,0,1-1.81.56,4.17,4.17,0,0,1-2.49-1A.51.51,0,0,1,248.46,66.15Z" style="fill: rgb(199, 199, 199); transform-origin: 251.067px 64.33px;" id="el003dgssdus21m" class="animable"></path><path d="M254.87,66.15a.5.5,0,0,1,.71-.07,3.19,3.19,0,0,0,1.86.75,2.13,2.13,0,0,0,1.22-.36.86.86,0,0,0,.42-.7.52.52,0,0,0-.09-.31.81.81,0,0,0-.29-.3,4.06,4.06,0,0,0-1.33-.46h0a4.76,4.76,0,0,1-1.26-.38,2.11,2.11,0,0,1-.91-.76,1.44,1.44,0,0,1-.22-.8,1.8,1.8,0,0,1,.78-1.42,2.86,2.86,0,0,1,1.68-.52,3.84,3.84,0,0,1,2.13.78.52.52,0,0,1,.14.7.5.5,0,0,1-.7.14,2.8,2.8,0,0,0-1.57-.62,1.86,1.86,0,0,0-1.09.33.78.78,0,0,0-.37.61A.49.49,0,0,0,256,63a1.26,1.26,0,0,0,.26.25,3.42,3.42,0,0,0,1.22.43h0a5.63,5.63,0,0,1,1.35.41,2.21,2.21,0,0,1,1,.81,1.55,1.55,0,0,1,.24.83,1.88,1.88,0,0,1-.84,1.51,3.07,3.07,0,0,1-1.81.56,4.17,4.17,0,0,1-2.49-1A.51.51,0,0,1,254.87,66.15Z" style="fill: rgb(199, 199, 199); transform-origin: 257.425px 64.31px;" id="el1yvz0r9fa9g" class="animable"></path><path d="M261.66,61.55a.53.53,0,0,1,.54-.53.54.54,0,0,1,.54.53v5.76a.54.54,0,0,1-.54.54.54.54,0,0,1-.54-.54Z" style="fill: rgb(199, 199, 199); transform-origin: 262.2px 64.435px;" id="elbwyvb164n" class="animable"></path><path d="M265.64,67.31a.54.54,0,0,1-.53.54.54.54,0,0,1-.53-.54V61.64h0a.53.53,0,0,1,1-.33l3.14,4.36v-4a.53.53,0,0,1,.53-.52.54.54,0,0,1,.54.52v5.67a.55.55,0,0,1-.54.54.54.54,0,0,1-.4-.2l-.05-.06-3.12-4.33Z" style="fill: rgb(199, 199, 199); transform-origin: 267.18px 64.4413px;" id="elz3twpde0ov8" class="animable"></path><path d="M271.3,64.34a3.56,3.56,0,0,1,3.6-3.52,3.68,3.68,0,0,1,2.23.76.56.56,0,1,1-.69.88,2.51,2.51,0,0,0-1.54-.53,2.41,2.41,0,0,0-1.75.72,2.31,2.31,0,0,0,0,3.37,2.4,2.4,0,0,0,1.75.71,2.64,2.64,0,0,0,1.34-.37V65h-1.4a.56.56,0,0,1-.55-.56.55.55,0,0,1,.55-.55h2a.55.55,0,0,1,.56.55v2.16a.9.9,0,0,1,0,.16l0,0h0a.44.44,0,0,1-.18.23,3.62,3.62,0,0,1-2.22.77A3.55,3.55,0,0,1,271.3,64.34Z" style="fill: rgb(199, 199, 199); transform-origin: 274.352px 64.2915px;" id="elb3vkw1dd0iw" class="animable"></path><path d="M280.06,66.46a.73.73,0,0,1,.73.73.73.73,0,0,1-.73.72.72.72,0,0,1-.72-.72A.73.73,0,0,1,280.06,66.46Z" style="fill: rgb(199, 199, 199); transform-origin: 280.065px 67.185px;" id="elve2249853h" class="animable"></path><path d="M282.3,66.46a.73.73,0,0,1,.73.73.73.73,0,0,1-.73.72.72.72,0,0,1-.72-.72A.73.73,0,0,1,282.3,66.46Z" style="fill: rgb(199, 199, 199); transform-origin: 282.305px 67.185px;" id="elg6kd4oih4hs" class="animable"></path><path d="M284.55,66.46a.73.73,0,0,1,.73.73.73.73,0,0,1-1.46,0A.73.73,0,0,1,284.55,66.46Z" style="fill: rgb(199, 199, 199); transform-origin: 284.55px 67.19px;" id="elmvls3j8iaeo" class="animable"></path></g><g id="freepik--Table--inject-223" class="animable" style="transform-origin: 250px 453.514px;"><path d="M36.71,453.51c136.65-.61,289.93-.61,426.58,0-136.65.62-289.93.62-426.58,0Z" style="fill: rgb(38, 50, 56); transform-origin: 250px 453.514px;" id="elocy4ygvqisi" class="animable"></path></g><g id="freepik--Character--inject-223" class="animable" style="transform-origin: 249.988px 274.363px;"><path d="M330.53,453.51h-83.3c-.15-.64-.3-1.28-.44-1.92-14.77-65.67,1.59-80.08,29.11-58.78,6.92,5.36,14.55,13,22.57,22.61l5.84,7Q317.84,438.62,330.53,453.51Z" style="fill: rgb(247, 169, 160); transform-origin: 285.881px 418.584px;" id="eljc9x2jc8uw" class="animable"></path><path d="M351.36,453.51H233.61q-.59-4.67-1.07-9.12c-.51-4.59-.94-9-1.29-13.21a223.57,223.57,0,0,1-.82-28.32,90.86,90.86,0,0,1,1.25-11.94c.15-.88.32-1.72.51-2.54.06-.27.13-.54.19-.81.2-.79.4-1.56.62-2.29.07-.24.15-.48.22-.73.16-.47.32-.94.48-1.39a21.83,21.83,0,0,1,4.72-8,13.34,13.34,0,0,1,1.19-1.08l.43-.33a9.91,9.91,0,0,1,.85-.59,13.11,13.11,0,0,1,2.81-1.32,15.42,15.42,0,0,1,5.57-.73l.73,0c6.67.47,15.11,4.23,25.4,11.05q7,4.68,15.26,11.24C309.59,408.53,331.36,431.14,351.36,453.51Z" style="fill: rgb(203, 173, 141); transform-origin: 290.829px 412.299px;" id="ely3hf7rvqf9" class="animable"></path><g id="el0mwzeabdpwjn"><path d="M231.86,389.94q.09-.49.21-1c.41.1.83.19,1.25.26,3,.52,7.43-.28,8.07-3.88.55-3.18-2.43-6.19-4.9-7.79.19-.29.39-.56.6-.83,3.71,2.5,7.63,7.52,4,11.44C238.5,390.87,235.2,390.74,231.86,389.94Zm18.79,30.34c-5.5.16-10.13,4.55-12.29,9.35-2.84,6.34-2.21,13.56-2.42,20.33,0,1.18-.09,2.36-.19,3.55h1c.42-6.36-.23-12.85,1.14-19.1,1.31-6,5.63-12.62,12.37-13.07,6.17-.41,10.51,5.27,11.46,10.84,1.25,7.41-2.7,14.6-5.79,21-.05.1-.1.2-.14.3h1.12c.91-1.88,1.85-3.73,2.68-5.59,2.59-5.8,4.67-12.53,2.39-18.78C260.25,424.33,256.07,420.13,250.65,420.28Zm26.07,4.4a33.91,33.91,0,0,0-12.23-12.15c-5.14-2.95-10.94-4.1-16.78-4.62s-11.65-.44-17.41-1.18c0,.34,0,.69,0,1,2.67.34,5.37.49,8,.63,6.15.31,12.41.42,18.4,2a31.68,31.68,0,0,1,15.37,9.63c8,9,10.32,21.94,7.2,33.44h1.09A38.06,38.06,0,0,0,276.72,424.68Zm-5.93-40.82c-2.19,2-4.86,3.75-7.92,3.83a9.86,9.86,0,0,1-7.76-3.92c-3-3.61-3.94-8.14-5-12.61H250l-.73,0h-.21c1.34,5.63,2.6,11.7,7.42,15.44,4.38,3.38,9.67,2.39,13.77-.87a31.22,31.22,0,0,0,4.17-4.12c-.29-.2-.58-.38-.87-.56A35.46,35.46,0,0,1,270.79,383.86Zm35,22.58c-3.44,2.31-6.53,5.27-10.54,6.51-3.06.95-6.7.85-9-1.67-1.94-2.14-2.24-5.29-1.76-8,.71-4,3.15-7.16,5.73-10.19l-.74-.59c-3.82,4.61-7.45,9.27-5.93,15.71a8.07,8.07,0,0,0,4.12,5.45,10.76,10.76,0,0,0,8.23.19c4-1.37,7.13-4.42,10.65-6.68Zm15.47,37.47c-4.39,3.65-9.54,6.92-15.47,6.65-2.5-.11-5.13-1-6.66-3.06-2-2.73-1.47-6.45.11-9.23,2.76-4.88,8.45-7.35,13.32-9.55a37.64,37.64,0,0,0,10-6c-.25-.26-.5-.52-.76-.77a22.13,22.13,0,0,1-2.25,1.84c-4.66,3.35-10.3,4.9-15.12,8-4.27,2.74-8.2,7.14-7.58,12.59.57,5,5.23,7.37,9.87,7.29,5.58-.1,10.38-3,14.61-6.44s7.91-7.5,11.95-11.4l-.69-.73C328.74,436.74,325.11,440.68,321.22,443.91Zm27.46,6.61c-4.82.65-9.72,1.1-14.17,2.61l-1.05.38h3.34a65.77,65.77,0,0,1,8.32-1.49c1.47-.19,2.93-.37,4.39-.58C349.23,451.14,349,450.83,348.68,450.52Z" style="fill: rgb(255, 255, 255); opacity: 0.5; transform-origin: 289.925px 412.335px;" class="animable"></path></g><g id="el9xf1zi1q3t5"><path d="M338.61,453.51h-105q-.59-4.67-1.08-9.12-.75-6.9-1.28-13.22a225.57,225.57,0,0,1-.83-28.31,94.21,94.21,0,0,1,1.25-11.94c.16-.88.33-1.72.51-2.54.06-.27.13-.54.19-.81.2-.79.4-1.56.62-2.29.07-.24.15-.48.22-.73.16-.47.32-.94.48-1.39a21.83,21.83,0,0,1,4.72-8,13.34,13.34,0,0,1,1.19-1.08l.43-.33c.28-.21.56-.4.85-.59a13.11,13.11,0,0,1,2.81-1.32,15.84,15.84,0,0,1,5.57-.73l.73,0a35.55,35.55,0,0,1,11.73,3.35Z" style="opacity: 0.1; transform-origin: 284.452px 412.301px;" class="animable"></path></g><path d="M324.07,453.51H123.73c18.74-31.52,41.09-59.31,67.66-79.26,16.87-12.68,56.94-16.85,84,7.95l.59.55c2.45,2.3,14.13,18.21,28.32,39.67C310.6,431.93,317.38,442.53,324.07,453.51Z" style="fill: rgb(203, 173, 141); transform-origin: 223.9px 408.822px;" id="eldbi0x75vzph" class="animable"></path><g id="elod915nrxnu"><path d="M169.18,448.25a36.16,36.16,0,0,1,9,5.26h-1.79c-5-3.62-12.06-7.64-17.86-4.16a9,9,0,0,0-3.69,4.16h-1.05a9.32,9.32,0,0,1,.59-1.24C157.41,446.78,163.75,446.18,169.18,448.25ZM141.8,426l-.9,1.24c.8,4.49,2.33,8.88,3.25,13.32a25.17,25.17,0,0,1-.31,13h1a22.44,22.44,0,0,0,1-5.41c.38-6.55-2.12-12.77-3.51-19.07Q142,427.5,141.8,426Zm36.32-40.81-1.33,1.19a27.73,27.73,0,0,0-.06,11.19c1.33,7.19,4.59,13.83,6.12,21,1.33,6.19,1.17,13.4-3,18.56-3.41,4.26-10,6.14-14.82,3.08-6-3.83-3.93-12.18-1.16-17.35s7.33-10.79,7-17.17a8.13,8.13,0,0,0-6-7.56l-.76.81a8.7,8.7,0,0,1,1.93.69c3.19,1.6,4.19,5.08,3.69,8.45-1,6.58-6,11.59-8.28,17.66-1.85,4.89-2.19,11.27,2.34,14.82,3.83,3,9.61,2.71,13.62.21,4.77-3,6.9-8.81,7.21-14.19C185.42,412.42,173.65,399.26,178.12,385.16Zm11,57a44.52,44.52,0,0,1,7.6-6,17.57,17.57,0,0,1,10-2.31c3.17.15,6.36.71,9.52.21A10.26,10.26,0,0,0,225,423a10.13,10.13,0,0,0-10.2-8.74c-2.75.07-5.3,1.42-7.68,2.65s-5.14,2.86-7.94,2.37c-6.16-1.07-5.12-9.11-3.92-13.47,1.94-7,4.38-13.93,4.43-21.33,0-4.25-1-10-5.15-12.27-.36.21-.7.42-1,.64,2.12.91,3.48,3.14,4.23,5.25a22.84,22.84,0,0,1,.75,9.73A63.16,63.16,0,0,1,196.15,399a87.6,87.6,0,0,0-2.58,9.43c-.71,4.24-.44,9.88,4.35,11.56,5.22,1.83,10.14-3.24,14.9-4.44,6-1.53,12.16,3.75,11,10a9.11,9.11,0,0,1-5.45,6.86c-3.14,1.24-6.63.74-9.9.49a20.65,20.65,0,0,0-9.62,1.05,27.73,27.73,0,0,0-7.38,4.73c-3.38,2.85-10.05,7.92-5.95,12.8a7.41,7.41,0,0,0,2.9,2.06,9.52,9.52,0,0,0,3.22.72,8.92,8.92,0,0,0,3.85-.72,15.72,15.72,0,0,0,3.38-1.93c2.53-1.83,4.63-4.18,7.16-6s6.07-3.52,9.33-2.53c4.5,1.36,5.64,6.1,5.06,10.46h1.11c.48-4.36-.85-9.42-5.17-11.2C210.5,439.89,205,445,201,448.51c-2.28,2-5,4.27-8.1,4.65-2.48.29-5.47-.66-6.91-2.8C183.86,447.2,186.93,444.16,189.13,442.13Zm61.52-21.85c-5.5.16-10.13,4.55-12.29,9.35-2.84,6.34-2.21,13.56-2.42,20.33,0,1.18-.09,2.36-.19,3.55h1c.42-6.36-.23-12.85,1.14-19.1,1.31-6,5.63-12.62,12.37-13.07,6.17-.41,10.51,5.27,11.46,10.84,1.25,7.41-2.7,14.6-5.79,21-.05.1-.1.2-.14.3h1.12c.91-1.88,1.85-3.73,2.68-5.59,2.59-5.8,4.67-12.53,2.39-18.78C260.25,424.33,256.07,420.13,250.65,420.28Zm13.84-7.75c-5.14-2.95-10.94-4.1-16.78-4.62-6.15-.55-12.37-.43-18.48-1.33-5.61-.83-12.17-2.7-15.95-7.23-2.41-2.89-1.74-6.66.86-9.18s6.46-2.87,9.88-2.34c5.3.82,12.41,5.25,17,.32,4.12-4.4-1.33-10.18-5.3-12.23-4.78-2.47-10.41-2.68-15.67-2.8a58.68,58.68,0,0,1-8.8-.35,4.53,4.53,0,0,1-3.87-2.86,6.3,6.3,0,0,1-.1-3.11l-1.11.32a7.6,7.6,0,0,0,.08,2.56c.57,2.68,2.9,3.89,5.43,4.2,5.72.7,11.51,0,17.22,1a20.44,20.44,0,0,1,7.43,2.62c2.5,1.58,5.59,4.63,5,7.87-.64,3.6-5.1,4.4-8.07,3.88-3.27-.57-6.29-2-9.59-2.47-5.46-.71-12.15,1.5-13,7.74-.77,5.78,5.91,9.46,10.46,11.18,5.43,2.06,11.35,2.44,17.1,2.74,6.15.31,12.41.42,18.4,2a31.68,31.68,0,0,1,15.37,9.63c8,9,10.32,21.94,7.2,33.44h1.09a38.06,38.06,0,0,0-3.65-28.83A33.91,33.91,0,0,0,264.49,412.53Zm6.3-28.67c-2.19,2-4.86,3.75-7.92,3.83a9.86,9.86,0,0,1-7.76-3.92c-3.87-4.65-4.3-10.8-6-16.43l-1.21-.35c.34,1,.62,2.06.88,3.12,1.44,5.9,2.55,12.48,7.66,16.44,4.38,3.38,9.67,2.39,13.77-.87a32.51,32.51,0,0,0,4.29-4.25l-.77-.68A36.42,36.42,0,0,1,270.79,383.86Zm26.59,28.22a14,14,0,0,1-2.17.87c-3.06.95-6.7.85-9-1.67-1.94-2.14-2.24-5.29-1.76-8a16.12,16.12,0,0,1,2.56-6.08c-.19-.28-.39-.55-.59-.82-2.42,3.45-4,7.17-2.91,11.83a8.07,8.07,0,0,0,4.12,5.45,10.76,10.76,0,0,0,8.23.19,16.34,16.34,0,0,0,2.1-.89C297.77,412.65,297.58,412.36,297.38,412.08Zm21.77,33.46c-3.92,2.94-8.38,5.25-13.4,5-2.5-.11-5.13-1-6.66-3.06-2-2.73-1.47-6.45.11-9.23,2.18-3.86,6.19-6.21,10.18-8.11l-.54-.83a39.67,39.67,0,0,0-4.44,2.41c-4.27,2.74-8.2,7.14-7.58,12.59.57,5,5.23,7.37,9.87,7.29,4.89-.09,9.18-2.35,13-5.2C319.52,446.13,319.34,445.83,319.15,445.54Z" style="fill: rgb(255, 255, 255); opacity: 0.5; transform-origin: 230.29px 410.563px;" class="animable"></path></g><path d="M259.71,307.38c32,38.89,98.6,37.48,137.2,10.21.94-.65-22.54-21.61-38.84-63.09-8.51-21.66-9.52-45.53-12.88-68.51-1.5-10.33-3-20.65-4.71-30.94-1.63-9.82-3.17-20.71-7.78-29.78-13.11-25.8-55.11-20-59.73-13.34C241.16,158,223.3,263.11,259.71,307.38Z" style="fill: rgb(38, 50, 56); transform-origin: 318.209px 221.831px;" id="el8k226jdjk86" class="animable"></path><path d="M266.36,277c7.89,23.69,24.83,43.25,48,53.17,24.39,10.44,54.73,8.83,78.49-2.74.42-.21.81.41.39.63-24.54,13-52.11,16.58-78.42,6.17-24.33-9.63-44.21-31-50.15-56.72A.89.89,0,0,1,266.36,277Z" style="fill: rgb(38, 50, 56); transform-origin: 329.039px 308.387px;" id="elr27q3n4mla" class="animable"></path><path d="M248.9,269.86c7.8,23.67,21.43,42.76,43.14,55.66,21.54,12.81,53.76,23.31,78.75,16.39a.54.54,0,0,1,.31,1c-26.4,8-58.93-1.41-81.87-15.27-20.34-12.3-38.93-33.19-42.22-57.51C246.86,269.05,248.57,268.86,248.9,269.86Z" style="fill: rgb(38, 50, 56); transform-origin: 309.179px 307.527px;" id="el5oklsn17qcw" class="animable"></path><path d="M334.29,147c4.48,29.22,9.28,57.36,20.39,85a297.84,297.84,0,0,0,45.4,77.24c.38.46-.25,1.14-.65.68-19.79-22.35-35.73-46.91-47.22-74.56-11.35-27.31-20.17-58.44-19.77-88.26A.93.93,0,0,1,334.29,147Z" style="fill: rgb(38, 50, 56); transform-origin: 366.312px 228.138px;" id="elepcy2wa7jvl" class="animable"></path><path d="M206.67,373.67c1.49,6.7,32.87,50.4,63.41,49.32,9.94-.38,10.34-54.75,10.34-54.75l.95-4,13.21-56.1L229,265l-9.49-5.72s-2.6,15.59-5.64,35c-.15.9-.3,1.8-.44,2.77s-.41,2.12-.54,3.15c-.5,2.9-1,5.86-1.41,8.82-.34,2.26-.68,4.44-.94,6.82s-.59,4.69-.92,7.07C206.9,346.45,206.08,370.83,206.67,373.67Z" style="fill: rgb(247, 169, 160); transform-origin: 250.535px 341.145px;" id="ellonqol8wirq" class="animable"></path><path d="M213.87,294.31c15.6,44.94,51.15,63.59,67.5,69.93l13.21-56.1L229,265l-9.49-5.72S216.91,274.87,213.87,294.31Z" style="fill: rgb(38, 50, 56); transform-origin: 254.225px 311.76px;" id="elcgxnr50kvji" class="animable"></path><path d="M360.62,213c12.72,100.35-45.95,119.3-67.59,122-19.64,2.47-86.85,8.38-109.87-90.12s19.61-136.13,64.24-144.15S347.9,112.68,360.62,213Z" style="fill: rgb(247, 169, 160); transform-origin: 269.558px 217.589px;" id="elorqmdc8zu1a" class="animable"></path><path d="M129.12,196.41a136.82,136.82,0,0,1-10.3,54c-5.88,14.2-13.38,28.28-13.29,44.1.18,28.27,27.11,47,51.6,58.81,16.38,7.92,52.51,9.33,80.08.22,1.35-.45-69.11-127.46,36.6-254.88.46-.55-66.67-15.85-109.27,15.6C136.79,134.74,128.94,164.55,129.12,196.41Z" style="fill: rgb(38, 50, 56); transform-origin: 189.671px 227.145px;" id="elja5ijfexlmh" class="animable"></path><path d="M127.14,182.38c2.93-22.09,11.46-41.14,26.3-57.77.14-.15.4.08.27.24-14.41,17.35-22.4,38.36-25,60.61-2.23,18.88-2.36,38.15-10.75,55.62-4.78,10-10.65,18.93-12.39,30.06a64.29,64.29,0,0,0,3.09,31.23c7.62,21.69,25.08,36,45.2,45.66.63.3.33,1.32-.35,1.05-36.92-14.32-62.53-56.75-44.38-94.94,5.72-12,11.67-22.68,14-36C125.18,206.28,125.57,194.26,127.14,182.38Z" style="fill: rgb(38, 50, 56); transform-origin: 128.68px 236.843px;" id="elpa5b3hlwgt" class="animable"></path><path d="M152.11,130.44c.14-.18.44,0,.3.2-15.62,19.56-23.08,43.16-22.89,68.06.1,11.74,1,23.49-.94,35.14-1.76,10.58-5.66,20.4-10.52,29.91C107,285.47,93.87,311,115.57,331.12c19,17.56,47.1,25.27,72.21,27.44a.57.57,0,0,1-.06,1.14c-24.84-1.16-52-9.46-71.25-25.74-16-13.55-17.28-32.27-9.67-50.9,5.41-13.24,13.67-25.09,17.79-38.89,4.35-14.57,3.58-29,3.4-44C127.66,174.14,135.25,150.42,152.11,130.44Z" style="fill: rgb(38, 50, 56); transform-origin: 145.308px 245.033px;" id="eltcx4igxlqc" class="animable"></path><path d="M126.51,190.91c2.29-22.94,7.66-47.11,26.3-62.27a.24.24,0,0,1,.32.36c-22.13,19.43-23.93,50.35-26.34,77.74-1.19,13.55-2.7,27.33-7.48,40.19s-14.13,23.87-17,37.46c-6,28.51,13.79,53.8,37.72,65.16,26.22,12.44,54.15,9.86,82.28,10.61.68,0,.8,1.18.09,1.24-39.46,3.56-92.82.26-115-38.61-9.22-16.17-10.3-35.05-2-52.06,6.41-13.1,13.42-24.7,16.39-39.22C124.57,218.12,125.16,204.46,126.51,190.91Z" style="fill: rgb(38, 50, 56); transform-origin: 161.329px 245.534px;" id="eld8on8blugv7" class="animable"></path><path d="M194,260.52c18.35,1,16.52-57,16.52-57s66.31.78,84-64.3c0,0,31.89,39.58,58.75,37.83,9.37-.61-6.93-70.95-61.06-74,0,0-62.33-23.9-104.36,26.81S168.73,259.2,194,260.52Z" style="fill: rgb(38, 50, 56); transform-origin: 260.173px 178.978px;" id="el42jqj04vau4" class="animable"></path><path d="M204.07,200.86c20.31,4.29,41.7,5.28,59.57-7.13,20.45-14.2,27.08-39,33.19-61.67.1-.4.72-.34.65.09-4,23.85-12.48,50.15-33.67,64.23C246.53,207.86,223,208.45,203.75,202,203.13,201.75,203.43,200.72,204.07,200.86Z" style="fill: rgb(38, 50, 56); transform-origin: 250.448px 168.955px;" id="ell1tz43gzk5b" class="animable"></path><path d="M295,126.52c4.14,12.93,8.64,24.2,18.07,34.35,9.17,9.88,20.35,16.09,32.9,20.66a.24.24,0,0,1-.13.46c-25-5-49.38-29.33-52.17-55.14C293.54,126.1,294.7,125.76,295,126.52Z" style="fill: rgb(38, 50, 56); transform-origin: 319.892px 154.043px;" id="elbml2fgwb7cg" class="animable"></path><path d="M343.55,187.87a66.57,66.57,0,0,1-7.06-.3c-2.71-.15-4.89,0-7.15-1.68a3.65,3.65,0,0,1-.72-4.39c1.8-2.94,5.16-3.59,8.43-3.55a13.31,13.31,0,0,1,9,3.26C348.67,183.42,346.74,187.71,343.55,187.87Z" style="fill: rgb(38, 50, 56); transform-origin: 337.731px 182.911px;" id="elxyoyhkmlxpt" class="animable"></path><path d="M276.65,215.16a70.26,70.26,0,0,0,6.9-1.56c2.64-.63,4.8-.85,6.73-2.93a3.65,3.65,0,0,0-.07-4.45c-2.3-2.57-5.72-2.61-8.93-2a13.19,13.19,0,0,0-8.26,4.81C270.82,211.68,273.48,215.57,276.65,215.16Z" style="fill: rgb(38, 50, 56); transform-origin: 281.608px 209.543px;" id="eld28aqyvftrk" class="animable"></path><path d="M292,228.84c-.09-.25-.48.41-.43.69,1.33,6.85,1.7,14.92-4.15,18.21-.19.1-.11.44.11.37C295,245.82,294.39,235.12,292,228.84Z" style="fill: rgb(38, 50, 56); transform-origin: 290.462px 238.452px;" id="eluaf9ed0fb2i" class="animable"></path><path d="M284.73,222.64c-11.21,1-8.49,23.3,1.89,22.42C296.84,244.19,294.12,221.85,284.73,222.64Z" style="fill: rgb(38, 50, 56); transform-origin: 285.308px 233.852px;" id="eldcvc2h2qkt" class="animable"></path><path d="M280.48,224.36c-1.79,1.5-3.43,4-5.76,4.49-2.69.6-5-1.49-7.08-3.53-.21-.21-.38,0-.35.31.46,4.29,2.64,8.48,7.3,8.56,4.26.07,6.81-4.09,7.35-8.52C282,224.85,281.21,223.76,280.48,224.36Z" style="fill: rgb(38, 50, 56); transform-origin: 274.615px 229.189px;" id="el3efjoc1747w" class="animable"></path><path d="M331.74,222.36c0-.27.57.28.58.57.34,7,1.91,14.89,8.38,16.69.2.06.21.41,0,.39C332.91,239.55,330.94,229,331.74,222.36Z" style="fill: rgb(38, 50, 56); transform-origin: 336.214px 231.149px;" id="elgsmqg1wnfe7" class="animable"></path><path d="M337.36,214.6c11.11-1.75,13.79,20.6,3.5,22.22C330.73,238.42,328.05,216.07,337.36,214.6Z" style="fill: rgb(38, 50, 56); transform-origin: 339.469px 225.702px;" id="el0arjf5jb41iu" class="animable"></path><path d="M342.2,215.51c1.9,1,3.91,2.92,6,2.8,2.47-.13,4-2.76,5.27-5.27.14-.26.33-.09.38.2.63,4.26-.25,8.88-4.26,10.19-3.65,1.2-6.84-2.14-8.37-6.27C341,216.4,341.43,215.12,342.2,215.51Z" style="fill: rgb(38, 50, 56); transform-origin: 347.599px 218.295px;" id="elnvfzuh13e9" class="animable"></path><path d="M291.52,283.76c1.59,1.72,3.14,4,5.66,4.38s5.3-.62,7.57-1.37a.24.24,0,0,1,.28.37,9.39,9.39,0,0,1-9,3.34c-3.13-.71-4.55-3.51-5.17-6.43C290.75,283.64,291.29,283.51,291.52,283.76Z" style="fill: rgb(38, 50, 56); transform-origin: 297.963px 287.133px;" id="elzlqp84xezt" class="animable"></path><path d="M320.49,258.35s1.51,10.4,1.55,15.32c0,.46-1.18.68-2.85.79-.08,0-.13.06-.19,0-8.67,1.42-17.42-1.52-22.74-8.56-.35-.48.27-1,.72-.68,6.51,4.7,13.68,5.88,21.37,5.95.33-1.36-3.19-17.73-2.41-17.79,2.68-.25,8,1.54,11.17,2.45-2.52-21.77-8.52-42.94-10.71-64.65a.68.68,0,0,1,1.29-.33c7.85,21.76,11.3,46.73,14.49,69.14C332.6,262.79,322.46,259.17,320.49,258.35Z" style="fill: rgb(38, 50, 56); transform-origin: 314.175px 232.639px;" id="el82w1orrqr8l" class="animable"></path><path d="M278.05,267.75a31,31,0,1,1,29.72-38.84h0a31,31,0,0,1-22.08,37.82A30.51,30.51,0,0,1,278.05,267.75Zm-.44-57.8a26.4,26.4,0,0,0-6.61.88,26.83,26.83,0,1,0,6.61-.88Z" style="fill: rgb(69, 90, 100); transform-origin: 277.779px 236.751px;" id="elryt8acxb5y8" class="animable"></path><path d="M348.53,258.55c-11.85.09-22.69-12-24.7-28a36.92,36.92,0,0,1,3.8-22.3c3.58-6.5,9-10.51,15.23-11.29s12.47,1.77,17.55,7.19a37,37,0,0,1,9.18,20.67c2.12,17-6.42,32-19,33.6A17.29,17.29,0,0,1,348.53,258.55ZM345,201a13.65,13.65,0,0,0-1.57.11c-4.89.61-9.19,3.87-12.12,9.18A32.88,32.88,0,0,0,327.93,230c1.85,14.68,11.73,25.58,22.11,24.27s17.27-14.3,15.44-29a32.87,32.87,0,0,0-8.1-18.36C353.68,203,349.32,200.93,345,201Z" style="fill: rgb(69, 90, 100); transform-origin: 346.684px 227.686px;" id="elr43e8fmaipj" class="animable"></path><path d="M307.18,232.59l-3-2.81c4.17-4.5,14.29-11.11,22.8-4l-2.65,3.18C316.68,222.57,307.57,232.19,307.18,232.59Z" style="fill: rgb(69, 90, 100); transform-origin: 315.58px 227.62px;" id="el06pwfejbj16" class="animable"></path><path d="M177.45,258l-3.88-1.43c.67-1.81,6.77-17.78,15.76-20.42,8.41-2.44,57.92-4.54,60.28-4.61l.13,4.14c-16,.48-52.75,2.54-59.24,4.45C184.56,241.88,179.07,253.63,177.45,258Z" style="fill: rgb(69, 90, 100); transform-origin: 211.655px 244.77px;" id="elyae6dyk3odq" class="animable"></path><path d="M216.2,251s-23.3-30.67-37.31-22.24,4.4,53.51,21.45,59.1,22.54-10.09,22.54-10.09Z" style="fill: rgb(247, 169, 160); transform-origin: 198.407px 258.179px;" id="elclar4so9g08" class="animable"></path><path d="M184.49,241.52a.23.23,0,0,0-.07.45c12,4.31,18.61,15,23.4,26.15-3.68-4.22-8.54-6.42-14.22-2-.3.23,0,.7.34.62,4.79-1.23,8.3-.53,11.72,3.21,2.42,2.64,4.13,6,5.91,9.14.59,1,2.47.39,2-.81l-.1-.26C213.19,263,200.68,242.4,184.49,241.52Z" style="fill: rgb(38, 50, 56); transform-origin: 198.951px 260.556px;" id="el940onorckbk" class="animable"></path><path d="M151.71,203.46c11.09,12.3,31.15,14.2,47.7,6.62,10.85-5,17.83-18.41,28.87-29.37,18.16-18.06,55.83-18.13,49.75-50.34-5.41-28.64-50.94-37.62-93.41-19.32C147.1,127.21,126.79,175.83,151.71,203.46Z" style="fill: rgb(255, 255, 255); transform-origin: 209.711px 158.051px;" id="el0taln55af7q" class="animable"></path></g><g id="freepik--speech-bubble-3--inject-223" class="animable" style="transform-origin: 333.634px 117.38px;"><g id="elccgghnha08o"><circle cx="391.98" cy="117.38" r="44.37" style="fill: rgb(255, 255, 255); transform-origin: 391.98px 117.38px; transform: rotate(-45deg);" class="animable"></circle></g><path d="M436.35,117.38c.22,17.6-11,34.47-27.33,41.13-29.35,12.32-61.85-9.31-61.9-41.13S379.67,63.92,409,76.24c16.29,6.66,27.55,23.54,27.33,41.14Zm0,0c.14-17.54-11.11-34.41-27.45-40.85-28.85-11.84-60.88,9.65-60.79,40.85-.1,31.19,31.94,52.7,60.79,40.84,16.34-6.44,27.59-23.3,27.45-40.84Z" style="fill: rgb(38, 50, 56); transform-origin: 391.737px 117.375px;" id="el7zg5ge1b0fq" class="animable"></path><path d="M385.86,149.05a1.05,1.05,0,0,0,1.63.71.56.56,0,0,0,.15-.1,1,1,0,0,0-.31-1.76A1.09,1.09,0,0,0,385.86,149.05Z" style="fill: rgb(203, 173, 141); transform-origin: 386.947px 148.886px;" id="eld0qsf0da8gf" class="animable"></path><path d="M410.72,95.11a1,1,0,0,0,.57,1.68l.17,0a1,1,0,0,0,1.09-1.43A1.08,1.08,0,0,0,410.72,95.11Z" style="fill: rgb(203, 173, 141); transform-origin: 411.549px 95.7597px;" id="elh4el8nau3kk" class="animable"></path><path d="M365.06,105a1.05,1.05,0,0,0-1.55.88,1.09,1.09,0,0,0,0,.18,1,1,0,0,0,1.61.8A1.09,1.09,0,0,0,365.06,105Z" style="fill: rgb(203, 173, 141); transform-origin: 364.559px 105.97px;" id="elpyn84cccuti" class="animable"></path><path d="M382.85,146.57a.66.66,0,0,0,.65-.34.76.76,0,1,0-.65.34Z" style="fill: rgb(203, 173, 141); transform-origin: 382.866px 145.812px;" id="el07brgjyxgk3n" class="animable"></path><path d="M384.36,152.12a.52.52,0,0,0,.83-.62A.52.52,0,0,0,384.36,152.12Z" style="fill: rgb(203, 173, 141); transform-origin: 384.775px 151.81px;" id="el6klqroltv8p" class="animable"></path><path d="M417.77,122.68a.51.51,0,0,0,1,.19A.51.51,0,0,0,417.77,122.68Z" style="fill: rgb(203, 173, 141); transform-origin: 418.27px 122.775px;" id="elemmgmxw0s5r" class="animable"></path><path d="M367.35,100.35a.52.52,0,0,0,0,1A.52.52,0,0,0,367.35,100.35Z" style="fill: rgb(203, 173, 141); transform-origin: 367.35px 100.85px;" id="elvzil4t691ks" class="animable"></path><path d="M416.69,99.09a.52.52,0,0,0,1,.19A.52.52,0,0,0,416.69,99.09Z" style="fill: rgb(203, 173, 141); transform-origin: 417.19px 99.185px;" id="el1jzixrjxpsj" class="animable"></path><path d="M411.58,126.78a61,61,0,0,1-19.59,17,61,61,0,0,1-19.59-17c-6.9-9.13-6.56-23.42,3.31-26.51,10.91-3.42,16.28,13,16.28,13s5.44-16.53,16.28-13C418.1,103.47,418.48,117.65,411.58,126.78Z" style="fill: rgb(203, 173, 141); transform-origin: 391.983px 121.778px;" id="el1nmrcduhu7j" class="animable"></path><rect x="341.37" y="119.29" width="1" height="0.75" style="fill: rgb(203, 173, 141); transform-origin: 341.87px 119.665px;" id="elm2gazvbsti" class="animable"></rect><path d="M339.36,120h-2v-.75h2Zm-4,0h-2v-.75h2Zm-4,0h-2v-.75h2Zm-4,0h-2v-.75h2Zm-4,0h-2v-.75h2Zm-4,0h-2v-.75h2Zm-4,0h-2v-.75h2Zm-4,0h-2v-.75h2Zm-4,0h-2v-.75h2Zm-4,0h-2v-.75h2Zm-4,0h-2v-.75h2Zm-4,0h-2v-.75h2Zm-4,0h-2v-.75h2Zm-4,0h-2v-.75h2Zm-4,0h-2v-.75h2Zm-4,0h-2v-.75h2Zm-4,0h-2v-.75h2Zm-4,0h-2v-.75h2Zm-4,0h-2v-.75h2Zm-4,0h-2v-.75h2Zm-4,0h-2v-.75h2Zm-4,0h-2v-.75h2Zm-4,0h-2v-.75h2Zm-4,0h-2v-.75h2Zm-4,0h-2v-.75h2Zm-4,0h-2v-.75h2Zm-4,0h-2v-.75h2Zm-4,0h-2v-.75h2Zm-4,0h-2v-.75h2Zm-4,0h-2v-.75h2Zm-4,0h-2v-.75h2Z" style="fill: rgb(203, 173, 141); transform-origin: 278.36px 119.625px;" id="elldtvakt048h" class="animable"></path><polygon points="214.32 120.66 213.57 120.66 213.57 119.29 214.95 119.29 214.95 120.04 214.32 120.04 214.32 120.66" style="fill: rgb(203, 173, 141); transform-origin: 214.26px 119.975px;" id="elt868jt51t0d" class="animable"></polygon><path d="M214.32,137.18h-.75v-2.07h.75Zm0-4.13h-.75V131h.75Zm0-4.13h-.75v-2.07h.75Zm0-4.13h-.75v-2.06h.75Z" style="fill: rgb(203, 173, 141); transform-origin: 213.945px 129.955px;" id="elok1c7tcghbb" class="animable"></path><rect x="213.57" y="139.24" width="0.75" height="1" style="fill: rgb(203, 173, 141); transform-origin: 213.945px 139.74px;" id="elqk2qao100t" class="animable"></rect><circle cx="342.3" cy="119.66" r="1.41" style="fill: rgb(203, 173, 141); transform-origin: 342.3px 119.66px;" id="elpuz7yt4drv" class="animable"></circle><path d="M212.54,140.17a1.41,1.41,0,1,0,1.41-1.41A1.41,1.41,0,0,0,212.54,140.17Z" style="fill: rgb(203, 173, 141); transform-origin: 213.95px 140.17px;" id="elow18aznz1fo" class="animable"></path></g><g id="freepik--speech-bubble-2--inject-223" class="animable" style="transform-origin: 131.19px 258.044px;"><g id="elfaudguq9n8l"><circle cx="131.19" cy="271.31" r="44.37" style="fill: rgb(255, 255, 255); transform-origin: 131.19px 271.31px; transform: rotate(-67.82deg);" class="animable"></circle></g><path d="M175.56,271.31c.22,17.6-11,34.47-27.33,41.13-29.35,12.32-61.85-9.31-61.91-41.13s32.56-53.46,61.91-41.14c16.29,6.66,27.55,23.53,27.33,41.14Zm0,0c.14-17.54-11.12-34.41-27.45-40.85-28.85-11.85-60.88,9.65-60.79,40.85-.1,31.19,31.94,52.7,60.79,40.84,16.33-6.44,27.59-23.3,27.45-40.84Z" style="fill: rgb(38, 50, 56); transform-origin: 130.942px 271.305px;" id="elw1icd8ea8o" class="animable"></path><path d="M104.44,267.64a1,1,0,0,0-1.54.88.53.53,0,0,0,0,.18,1.05,1.05,0,0,0,1.61.8A1.09,1.09,0,0,0,104.44,267.64Z" style="fill: rgb(203, 173, 141); transform-origin: 103.945px 268.573px;" id="elvxlshto7gyl" class="animable"></path><path d="M153.55,287.77a1.06,1.06,0,0,0-1.55.89.47.47,0,0,0,0,.17,1,1,0,0,0,1.61.8A1.09,1.09,0,0,0,153.55,287.77Z" style="fill: rgb(203, 173, 141); transform-origin: 153.047px 288.743px;" id="elefm77v55zl5" class="animable"></path><path d="M147.93,242.68a1,1,0,0,0,.2,1.77l.16.08a1,1,0,0,0,1.37-1.16A1.09,1.09,0,0,0,147.93,242.68Z" style="fill: rgb(203, 173, 141); transform-origin: 148.586px 243.537px;" id="el4fhjg3y0h1x" class="animable"></path><path d="M108.23,266.69a.66.66,0,0,0-.11.73.74.74,0,0,0,1.33.16A.76.76,0,0,0,108.23,266.69Z" style="fill: rgb(203, 173, 141); transform-origin: 108.803px 267.186px;" id="el25q940nhrxt" class="animable"></path><path d="M102.88,264.59a.52.52,0,0,0,0,1A.52.52,0,0,0,102.88,264.59Z" style="fill: rgb(203, 173, 141); transform-origin: 102.88px 265.09px;" id="ellx54mcfqgon" class="animable"></path><path d="M109.56,298.77a.52.52,0,0,0,0,1A.52.52,0,0,0,109.56,298.77Z" style="fill: rgb(203, 173, 141); transform-origin: 109.56px 299.27px;" id="elie7oskxpwb" class="animable"></path><path d="M144.6,238.75a.52.52,0,0,0,1,.41A.52.52,0,0,0,144.6,238.75Z" style="fill: rgb(203, 173, 141); transform-origin: 145.1px 238.955px;" id="elwh3qb82r7nc" class="animable"></path><path d="M156.93,279a.52.52,0,0,0,0,1A.52.52,0,0,0,156.93,279Z" style="fill: rgb(203, 173, 141); transform-origin: 156.93px 279.5px;" id="elxf43qee56bq" class="animable"></path><path d="M142,250.5a8.1,8.1,0,1,1-6.64-9.34A8.1,8.1,0,0,1,142,250.5Z" style="fill: rgb(203, 173, 141); transform-origin: 134.014px 249.147px;" id="elo7rrf8uugyg" class="animable"></path><g id="els9fz4tfiyxb"><rect x="124.09" y="255.9" width="17.17" height="2.48" style="fill: rgb(203, 173, 141); transform-origin: 132.675px 257.14px; transform: rotate(9.58deg);" class="animable"></rect></g><g id="el8mgkofp8ay"><rect x="124.09" y="255.9" width="17.17" height="2.48" style="opacity: 0.1; transform-origin: 132.675px 257.14px; transform: rotate(9.58deg);" class="animable"></rect></g><g id="ely5akwdxmeg9"><rect x="109.61" y="289.51" width="34.78" height="2.48" style="fill: rgb(203, 173, 141); transform-origin: 127px 290.75px; transform: rotate(9.74364deg);" class="animable"></rect></g><g id="el910ichos4n"><rect x="109.61" y="289.51" width="34.78" height="2.48" style="opacity: 0.1; transform-origin: 127px 290.75px; transform: rotate(9.74364deg);" class="animable"></rect></g><g id="elsvqz1mbghse"><rect x="108.45" y="296.35" width="34.78" height="2.48" style="fill: rgb(203, 173, 141); transform-origin: 125.84px 297.59px; transform: rotate(9.58deg);" class="animable"></rect></g><g id="elsfbbv3ptme"><rect x="108.45" y="296.35" width="34.78" height="2.48" style="opacity: 0.1; transform-origin: 125.84px 297.59px; transform: rotate(9.58deg);" class="animable"></rect></g><g id="elceot0gfkmig"><rect x="110.33" y="291.93" width="32.19" height="4.47" style="fill: rgb(203, 173, 141); transform-origin: 126.425px 294.165px; transform: rotate(9.58deg);" class="animable"></rect></g><g id="eloka8txdzsg"><rect x="125.26" y="258.34" width="14.01" height="2.48" style="fill: rgb(203, 173, 141); transform-origin: 132.265px 259.58px; transform: rotate(9.59deg);" class="animable"></rect></g><path d="M141.23,291.89l-28-4.74s7.47-5.31,10.11-12.75c2.2-6.28,4.14-14.38,4.14-14.38l9.26,1.56s-.84,8.29-.81,14.95C135.92,284.41,141.23,291.89,141.23,291.89Z" style="fill: rgb(203, 173, 141); transform-origin: 127.23px 275.955px;" id="elfizot9qopge" class="animable"></path><g id="elyz48xkp313d"><rect x="134.14" y="222.23" width="1" height="0.75" style="fill: rgb(203, 173, 141); transform-origin: 134.64px 222.605px; transform: rotate(-88.43deg);" class="animable"></rect></g><path d="M135.09,220.19l-.75,0,0-1.92.75,0Zm.1-3.85-.75,0,.06-1.93.75,0Zm.11-3.85-.75,0,0-1.93.75,0Zm.11-3.86-.75,0,.05-1.92.75,0Zm.1-3.85-.75,0,.06-1.93.75,0Zm.11-3.85-.75,0,0-1.93.75,0Zm.11-3.86-.75,0,.05-1.93.75,0Zm.1-3.85-.75,0,.06-1.93.75,0Z" style="fill: rgb(203, 173, 141); transform-origin: 135.115px 205.74px;" id="el25smfo1b9t8" class="animable"></path><polygon points="135.94 189.37 135.19 189.34 135.23 187.98 136.59 187.98 136.59 188.73 135.96 188.73 135.94 189.37" style="fill: rgb(203, 173, 141); transform-origin: 135.89px 188.675px;" id="elvh3ox3tkzq9" class="animable"></polygon><path d="M148.64,188.73h-2V188h2Zm-4,0h-2V188h2Zm-4,0h-2V188h2Z" style="fill: rgb(203, 173, 141); transform-origin: 143.64px 188.365px;" id="el8uj9ebqdthv" class="animable"></path><rect x="150.65" y="187.98" width="1" height="0.75" style="fill: rgb(203, 173, 141); transform-origin: 151.15px 188.355px;" id="eltlousgb51h" class="animable"></rect><path d="M136,223.08a1.41,1.41,0,1,1-1.37-1.45A1.41,1.41,0,0,1,136,223.08Z" style="fill: rgb(203, 173, 141); transform-origin: 134.591px 223.039px;" id="el19o5qkf7lms" class="animable"></path><path d="M151.58,189.76a1.41,1.41,0,1,0-1.41-1.41A1.41,1.41,0,0,0,151.58,189.76Z" style="fill: rgb(203, 173, 141); transform-origin: 151.58px 188.35px;" id="el0d1unatp2dcu" class="animable"></path></g><g id="freepik--speech-bubble-1--inject-223" class="animable" style="transform-origin: 104.664px 148.17px;"><g id="eluyva7ckwh1i"><circle cx="87.59" cy="148.17" r="44.37" style="fill: rgb(255, 255, 255); transform-origin: 87.59px 148.17px; transform: rotate(-13.03deg);" class="animable"></circle></g><path d="M132,148.17c.22,17.6-11,34.47-27.33,41.13-29.35,12.32-61.85-9.3-61.9-41.13S75.28,94.71,104.63,107c16.29,6.66,27.55,23.54,27.33,41.14Zm0,0c.14-17.54-11.11-34.41-27.45-40.84C75.66,95.48,43.63,117,43.72,148.17c-.1,31.19,31.94,52.7,60.79,40.84,16.33-6.44,27.59-23.3,27.45-40.84Z" style="fill: rgb(38, 50, 56); transform-origin: 87.3866px 148.158px;" id="el5bciht1neg" class="animable"></path><path d="M107.74,132.12a1.05,1.05,0,0,0,1.3-1.22.86.86,0,0,0,0-.17,1,1,0,0,0-1.75-.41A1.09,1.09,0,0,0,107.74,132.12Z" style="fill: rgb(203, 173, 141); transform-origin: 108.02px 131.054px;" id="el1ll5ketggz5" class="animable"></path><path d="M53.48,134.38a1.05,1.05,0,0,0-1.54.89.47.47,0,0,0,0,.17,1,1,0,0,0,1.61.8A1.09,1.09,0,0,0,53.48,134.38Z" style="fill: rgb(203, 173, 141); transform-origin: 52.9851px 135.353px;" id="elu9yutz88gfl" class="animable"></path><path d="M71.87,163.16a1,1,0,0,0-1.54.88,1.1,1.1,0,0,0,0,.18,1.05,1.05,0,0,0,1.61.8A1.09,1.09,0,0,0,71.87,163.16Z" style="fill: rgb(203, 173, 141); transform-origin: 71.3771px 164.093px;" id="ely4dcs4aeniq" class="animable"></path><path d="M104.28,133.91a.68.68,0,0,0-.06-.73.74.74,0,0,0-1.33.14A.76.76,0,0,0,104.28,133.91Z" style="fill: rgb(203, 173, 141); transform-origin: 103.609px 133.56px;" id="elej9uqi2jyjr" class="animable"></path><path d="M110,134.71a.51.51,0,0,0-.24-1A.51.51,0,0,0,110,134.71Z" style="fill: rgb(203, 173, 141); transform-origin: 109.88px 134.21px;" id="elcf4yr6bsi8u" class="animable"></path><path d="M57.91,132a.52.52,0,0,0,0,1A.52.52,0,0,0,57.91,132Z" style="fill: rgb(203, 173, 141); transform-origin: 57.91px 132.5px;" id="elj2nz9hn4o4f" class="animable"></path><path d="M76.76,169.32a.52.52,0,0,0,0,1A.52.52,0,0,0,76.76,169.32Z" style="fill: rgb(203, 173, 141); transform-origin: 76.76px 169.82px;" id="el8qikpoiob09" class="animable"></path><path d="M124.78,157.1a.52.52,0,0,0,0,1A.52.52,0,0,0,124.78,157.1Z" style="fill: rgb(203, 173, 141); transform-origin: 124.78px 157.6px;" id="el0twiuvumi5e" class="animable"></path><path d="M51.67,145.32l-.24.74-.52,1.58-.12.38c-1.73,7.95,64.39,23.63,66.75,11.84l.63-1.83s0-.07,0-.11l.1-.29,0,0-1.69-1.2c-5.64-8-33.78-16.48-49.83-17.82l-6-2.16h0l0,.07,0,.08a20.81,20.81,0,0,0-.77,2.53c.32,1.05,4.76,3.13,6.68,4.74.59.5.93.95.86,1.32-.41,2-9.85-.09-14.35,1.05l-1.32-.84Zm30.81,1.31c-.31,1.13-2.82,1.42-5.59.65s-4.75-2.31-4.44-3.45,2.82-1.42,5.58-.65S82.79,145.49,82.48,146.63Z" style="fill: rgb(203, 173, 141); transform-origin: 84.5133px 150.277px;" id="elv6lyj3nd1zn" class="animable"></path><path d="M51.51,145.81l-.08.25s0,.05,0,.07c-1.81,8.18,62.7,23.34,66.76,11.9,0,0,0-.07,0-.11a2.81,2.81,0,0,0,.08-.31v0c2.12-10.31-40.26-22.48-56.16-21.53-.81,0-1.25.18-1.42.38a.21.21,0,0,0,0,.06.12.12,0,0,0,0,.08c-.31,1.31,7.85,4.67,7.5,6.38-.1.49-.69.76-1.59.89-3.73.55-12.79-1.17-14.81,1.53A1.92,1.92,0,0,0,51.51,145.81Zm25.38,1.47c-2.77-.77-4.75-2.31-4.44-3.45s2.82-1.42,5.58-.65,4.76,2.31,4.45,3.45S79.66,148.05,76.89,147.28Z" style="fill: rgb(203, 173, 141); transform-origin: 84.8697px 149.089px;" id="elu4kc5euza5" class="animable"></path><g id="elqvnmlb8nuvn"><path d="M51.51,145.81l-.08.25s0,.05,0,.07c-1.81,8.18,62.7,23.34,66.76,11.9,0,0,0-.07,0-.11a2.81,2.81,0,0,0,.08-.31v0c2.12-10.31-40.26-22.48-56.16-21.53-.81,0-1.25.18-1.42.38a.21.21,0,0,0,0,.06.12.12,0,0,0,0,.08c-.31,1.31,7.85,4.67,7.5,6.38-.1.49-.69.76-1.59.89-3.73.55-12.79-1.17-14.81,1.53A1.92,1.92,0,0,0,51.51,145.81Zm28.28,1.9a11,11,0,0,1-2.9-.43c-2.77-.77-4.75-2.31-4.44-3.45a1.34,1.34,0,0,1,.91-.81,8.18,8.18,0,0,1,4.67.16c2.78.77,4.76,2.31,4.45,3.45C82.28,147.34,81.23,147.71,79.79,147.71Z" style="opacity: 0.2; transform-origin: 84.8697px 149.089px;" class="animable"></path></g><path d="M73.36,143a10.9,10.9,0,0,1,2.89.42c2.77.78,4.76,2.32,4.45,3.45a1.35,1.35,0,0,1-.91.82c1.44,0,2.49-.37,2.69-1.08.31-1.14-1.67-2.68-4.45-3.45A8.18,8.18,0,0,0,73.36,143Z" style="fill: rgb(203, 173, 141); transform-origin: 77.936px 145.212px;" id="el5e2nqtuja5y" class="animable"></path><path d="M72.82,148.94A4.47,4.47,0,0,1,75,150.68a1.61,1.61,0,0,1-.83,2.44c-2.19.8-7.13-.55-7-3.49C67.22,147,70.67,147.84,72.82,148.94Z" style="fill: rgb(69, 90, 100); transform-origin: 71.2244px 150.616px;" id="elegd68eilctq" class="animable"></path><path d="M83.79,155.25l-.25-.18a3.51,3.51,0,0,1-.76-.61,2,2,0,0,1-.46-.84,1,1,0,0,1,0-.63,1.53,1.53,0,0,1,1.24-1.16,8.73,8.73,0,0,1,2.88.12c1.4.1,2.54-.49,3.92-.06s3.16,1.71,3.16,3.19C93.51,159,85.71,156.47,83.79,155.25Z" style="fill: rgb(203, 173, 141); transform-origin: 87.8945px 154.458px;" id="el3d798cro821" class="animable"></path><path d="M91.78,144.23c-1.94,1.53.58,3.65,2.06,4.15s5.73,1.71,6-.67c.2-1.43-1.2-2.23-2.62-2.6C95.53,144.05,93.12,143.18,91.78,144.23Z" style="fill: rgb(38, 50, 56); transform-origin: 95.4669px 146.445px;" id="elku4t2jbw3t" class="animable"></path><path d="M111.15,153.4c1.33,2.5-1.63,4.29-3.77,4.22a21.33,21.33,0,0,1-4.93-1c-1-.31-2-1-2-2.16,0-2.32,2.4-2.69,4.51-2.55C107.31,151.44,110.09,151.39,111.15,153.4Z" style="fill: rgb(235, 235, 235); transform-origin: 105.966px 154.631px;" id="el89h2rrnuhls" class="animable"></path><path d="M97.29,149.6s4.77-4.31,9.51-9,17-12.61,17.46-12.41S114.18,138.83,109,142.85s-10.7,7.74-10.7,7.74Z" style="fill: rgb(69, 90, 100); transform-origin: 110.782px 139.388px;" id="elwkl2238i4xi" class="animable"></path><polygon points="97.28 149.29 100.83 145.78 102.53 147.88 98.48 150.68 97.28 149.29" style="fill: rgb(235, 235, 235); transform-origin: 99.905px 148.23px;" id="elbidhm2isj2" class="animable"></polygon><path d="M97.28,149.29a4.66,4.66,0,0,0-3.87,2.32,4.9,4.9,0,0,1-3,2.57s5.77,1.32,8-3.5Z" style="fill: rgb(38, 50, 56); transform-origin: 94.41px 151.818px;" id="el4y2mt7gvsyl" class="animable"></path><path d="M90.22,154.25c.2-.31,1.76-.61,2.54-1.77s3.91,1.23,2.15,1.75C92.91,154.82,89.86,154.82,90.22,154.25Z" style="fill: rgb(203, 173, 141); transform-origin: 92.8149px 153.421px;" id="elp0vq728lwx" class="animable"></path><rect x="123.83" y="114.49" width="1" height="0.75" style="fill: rgb(203, 173, 141); transform-origin: 124.33px 114.865px;" id="ely95jt8z1kff" class="animable"></rect><path d="M170.48,115.24H168.4v-.75h2.08Zm-4.15,0h-2.08v-.75h2.08Zm-4.15,0H160.1v-.75h2.08Zm-4.15,0H156v-.75H158Zm-4.15,0H151.8v-.75h2.08Zm-4.15,0h-2.08v-.75h2.08Zm-4.15,0H143.5v-.75h2.08Zm-4.15,0h-2.08v-.75h2.08Zm-4.15,0H135.2v-.75h2.08Zm-4.15,0h-2.08v-.75h2.08Zm-4.15,0H126.9v-.75H129Z" style="fill: rgb(203, 173, 141); transform-origin: 148.69px 114.865px;" id="eljdwsbce2dh" class="animable"></path><polygon points="173.93 115.86 173.18 115.86 173.18 115.24 172.56 115.24 172.56 114.49 173.93 114.49 173.93 115.86" style="fill: rgb(203, 173, 141); transform-origin: 173.245px 115.175px;" id="el43x93s72geg" class="animable"></polygon><rect x="173.18" y="117.95" width="0.75" height="2.09" style="fill: rgb(203, 173, 141); transform-origin: 173.555px 118.995px;" id="elapvtmkk6uyr" class="animable"></rect><rect x="173.18" y="122.12" width="0.75" height="1" style="fill: rgb(203, 173, 141); transform-origin: 173.555px 122.62px;" id="el9a7bxh1ic2g" class="animable"></rect><path d="M123.9,116.27a1.41,1.41,0,1,1,1.41-1.41A1.41,1.41,0,0,1,123.9,116.27Z" style="fill: rgb(203, 173, 141); transform-origin: 123.9px 114.86px;" id="el1420cwikl53c" class="animable"></path><path d="M172.15,123.05a1.41,1.41,0,1,0,1.41-1.41A1.41,1.41,0,0,0,172.15,123.05Z" style="fill: rgb(203, 173, 141); transform-origin: 173.56px 123.05px;" id="el1ojpyr9yhuu" class="animable"></path></g><g id="freepik--Gears--inject-223" class="animable" style="transform-origin: 191.4px 165.115px;"><path d="M201.12,184v-3.69l-4.4-.44a19.55,19.55,0,0,0-1.55-5.76l3.57-2.56-1.85-3.21-4,1.82a19.82,19.82,0,0,0-4.23-4.2l1.81-4-3.2-1.85-2.58,3.58a19.83,19.83,0,0,0-5.76-1.53l-.44-4.37h-3.69l-.44,4.39a19.87,19.87,0,0,0-5.76,1.56L166,160.19,162.81,162l1.81,4a20.29,20.29,0,0,0-4.2,4.23l-4-1.81-1.86,3.2,3.59,2.57a19.67,19.67,0,0,0-1.53,5.77l-4.37.44v3.69l4.38.44a20.21,20.21,0,0,0,1.57,5.76l-3.58,2.56,1.86,3.21,4-1.81a20.24,20.24,0,0,0,4.22,4.2l-1.8,4,3.2,1.86,2.57-3.59a19.59,19.59,0,0,0,5.77,1.53l.44,4.37h3.69l.44-4.38a20.21,20.21,0,0,0,5.76-1.57l2.56,3.57,3.21-1.85-1.82-4a19.82,19.82,0,0,0,4.2-4.23l4,1.81,1.85-3.2-3.58-2.57a20.24,20.24,0,0,0,1.53-5.76Zm-24.44,6.7a8.49,8.49,0,1,1,8.49-8.48A8.48,8.48,0,0,1,176.68,190.73Z" style="fill: rgb(203, 173, 141); transform-origin: 176.685px 182.205px;" id="el5cqf5o46av3" class="animable"></path><g id="eldd779ujgtcp"><g style="opacity: 0.6; transform-origin: 213.66px 163.315px;" class="animable"><path d="M230.43,165.84l.12-4.71-3.6-.38a13.7,13.7,0,0,0-2-4.88l2.37-2.63-3.25-3.42-2.8,2.27A13.49,13.49,0,0,0,216.4,150l-.17-3.43-4.72-.13-.35,3.43a13.77,13.77,0,0,0-5.14,2l-2.4-2.16-3.42,3.24,2,2.51a13.63,13.63,0,0,0-2.31,5.19l-3,.16-.12,4.71,3.05.32a13.85,13.85,0,0,0,2.16,5.37l-2,2.2,3.24,3.42,2.41-2A13.61,13.61,0,0,0,211,177l.15,3.06,4.72.13.34-3.24a13.79,13.79,0,0,0,5.11-2.18l2.43,2.19,3.43-3.24-2.19-2.7a13.56,13.56,0,0,0,2-5ZM213.66,168a4.76,4.76,0,1,1,4.76-4.76A4.76,4.76,0,0,1,213.66,168Z" style="fill: rgb(203, 173, 141); transform-origin: 213.66px 163.315px;" id="el7sg3srrqgk" class="animable"></path></g></g><g id="el9dsweqjqg4e"><g style="opacity: 0.6; transform-origin: 174.875px 140.415px;" class="animable"><path d="M190.17,147.68l1.47-4.47-3.34-1.4a13.79,13.79,0,0,0-.5-5.25l3-1.84-2.12-4.21-3.34,1.37a13.46,13.46,0,0,0-4.06-3.45l.83-3.34-4.49-1.48-1.32,3.18a14,14,0,0,0-5.48.4l-1.68-2.76L165,126.55l1.23,3a13.66,13.66,0,0,0-3.7,4.31l-2.95-.72-1.47,4.47,2.83,1.19a13.76,13.76,0,0,0,.52,5.76l-2.54,1.54L161,150.3l2.87-1.18a13.43,13.43,0,0,0,4.44,3.62l-.73,3,4.48,1.48,1.26-3a13.83,13.83,0,0,0,5.52-.62l1.7,2.8,4.21-2.12L183.42,151a13.51,13.51,0,0,0,3.37-4.18ZM173.47,145a4.75,4.75,0,1,1,5.93-3.19A4.75,4.75,0,0,1,173.47,145Z" style="fill: rgb(203, 173, 141); transform-origin: 174.875px 140.415px;" id="eldtlq6gtfibi" class="animable"></path></g></g></g><defs>     <filter id="active" height="200%">         <feMorphology in="SourceAlpha" result="DILATED" operator="dilate" radius="2"></feMorphology>                <feFlood flood-color="#32DFEC" flood-opacity="1" result="PINK"></feFlood>        <feComposite in="PINK" in2="DILATED" operator="in" result="OUTLINE"></feComposite>        <feMerge>            <feMergeNode in="OUTLINE"></feMergeNode>            <feMergeNode in="SourceGraphic"></feMergeNode>        </feMerge>    </filter>    <filter id="hover" height="200%">        <feMorphology in="SourceAlpha" result="DILATED" operator="dilate" radius="2"></feMorphology>                <feFlood flood-color="#ff0000" flood-opacity="0.5" result="PINK"></feFlood>        <feComposite in="PINK" in2="DILATED" operator="in" result="OUTLINE"></feComposite>        <feMerge>            <feMergeNode in="OUTLINE"></feMergeNode>            <feMergeNode in="SourceGraphic"></feMergeNode>        </feMerge>            <feColorMatrix type="matrix" values="0   0   0   0   0                0   1   0   0   0                0   0   0   0   0                0   0   0   1   0 "></feColorMatrix>    </filter></defs></svg>